<svg version="1.1" id="Layer_1" xmlns="http://www.w3.org/2000/svg" xmlns:xlink="http://www.w3.org/1999/xlink" x="0px" y="0px"
	 width="100%" viewBox="0 0 327 338" enable-background="new 0 0 327 338" xml:space="preserve">
	<path style="fill: none; stroke: #99ff66; stroke-width: 7px;" d="M 86.046 222.834 C 86.046 222.834 84.892 183.417 87.171 171.937 C 88.399 165.752 89.914 162.264 92.514 158.158 C 95.144 154.005 98.828 149.997 102.918 147.192 C 107.061 144.351 112.201 142.331 117.26 141.286 C 122.492 140.205 128.487 139.692 133.85 141.005 C 139.57 142.405 145.886 146.362 150.441 150.004 C 154.494 153.245 157.713 156.817 160.283 161.252 C 163.114 166.137 166.188 178.405 166.188 178.405" data-bx-d="M 86.046 222.834 R 87.171 171.937 R 92.514 158.158 R 102.918 147.192 R 117.26 141.286 R 133.85 141.005 R 150.441 150.004 R 160.283 161.252 R 166.188 178.405 1@07378109"></path>
	<path style="stroke: #99ff66; stroke-width: 7px; fill: none;" d="M 164.225 140.193 C 164.225 140.193 163.071 179.61 165.35 191.09 C 166.578 197.275 168.093 200.763 170.693 204.869 C 173.323 209.022 177.007 213.03 181.097 215.835 C 185.24 218.676 190.38 220.696 195.439 221.741 C 200.671 222.822 206.666 223.335 212.029 222.022 C 217.749 220.622 224.065 216.665 228.62 213.023 C 232.673 209.782 236.157 205.994 238.462 201.775 C 240.715 197.65 242.422 188.053 242.422 188.053" data-bx-d="M 164.225 140.193 R 165.35 191.09 R 170.693 204.869 R 181.097 215.835 R 195.439 221.741 R 212.029 222.022 R 228.62 213.023 R 238.462 201.775 R 242.422 188.053 1@2bcea22c" transform="matrix(-1, 0, 0, -1, 408.299686, 362.996181)"></path>
	<path style="fill: rgb(216, 216, 216); stroke: #99ff66; stroke-width: 9px;" d="M 165.22 136.506 L 165.22 257.984"></path>
	<ellipse style="fill: #99ff66;" cx="165.009" cy="259.07" rx="8.372" ry="8.1"></ellipse>
	<ellipse style="fill: #99ff66;" cx="184.816" cy="227.04" rx="8.372" ry="8.1"></ellipse>
	<ellipse style="fill: #99ff66;" cx="224.432" cy="227.448" rx="8.372" ry="8.1"></ellipse>
	<path style="fill: none; stroke: #99ff66; stroke-width: 7px;" d="M 184.816 226.223 C 184.816 226.223 183.006 185.764 185.225 176.125 C 186.191 171.928 187.295 169.945 189.309 167.549 C 191.411 165.048 194.952 162.67 197.749 161.559 C 200.029 160.653 202.156 160.449 204.556 160.606 C 207.33 160.788 210.721 161.629 213.405 163.056 C 216.185 164.534 219.146 167.045 220.892 169.454 C 222.417 171.558 223.047 172.911 223.751 176.398 C 225.597 185.539 224.16 227.993 224.16 227.993" data-bx-d="M 184.816 226.223 R 185.225 176.125 R 189.309 167.549 R 197.749 161.559 R 204.556 160.606 R 213.405 163.056 R 220.892 169.454 R 223.751 176.398 R 224.16 227.993 1@d879ac8f"></path>
	<ellipse style="fill: #99ff66;" cx="106.062" cy="226.425" rx="8.372" ry="8.1"></ellipse>
	<ellipse style="fill: #99ff66;" cx="145.678" cy="226.833" rx="8.372" ry="8.1"></ellipse>
	<ellipse style="fill: #99ff66;" cx="224.432" cy="227.448" rx="8.372" ry="8.1"></ellipse>
	<path style="fill: none; stroke: #99ff66; stroke-width: 7px;" d="M 184.816 226.223 C 184.816 226.223 183.006 185.764 185.225 176.125 C 186.191 171.928 187.295 169.945 189.309 167.549 C 191.411 165.048 194.952 162.67 197.749 161.559 C 200.029 160.653 202.156 160.449 204.556 160.606 C 207.33 160.788 210.721 161.629 213.405 163.056 C 216.185 164.534 219.146 167.045 220.892 169.454 C 222.417 171.558 223.047 172.911 223.751 176.398 C 225.597 185.539 224.16 227.993 224.16 227.993" data-bx-d="M 184.816 226.223 R 185.225 176.125 R 189.309 167.549 R 197.749 161.559 R 204.556 160.606 R 213.405 163.056 R 220.892 169.454 R 223.751 176.398 R 224.16 227.993 1@d879ac8f"></path>
	<ellipse style="fill: #99ff66;" cx="106.062" cy="226.425" rx="8.372" ry="8.1"></ellipse>
	<ellipse style="fill: #99ff66;" cx="145.678" cy="226.833" rx="8.372" ry="8.1"></ellipse>
	<path style="fill: none; stroke: #99ff66; stroke-width: 7px;" d="M 106.062 225.608 C 106.062 225.608 104.25160075927488 185.1493160264999 106.471 175.51 C 107.43738889306118 171.31277050934168 108.5410251606125 169.3298927701951 110.555 166.934 C 112.65723551476707 164.4331093371307 116.19768366641041 162.05531285794282 118.995 160.944 C 121.27463725320645 160.03834976641232 123.40169487686009 159.83355153098302 125.802 159.991 C 128.57626107853807 160.1729781807148 131.96656434803754 161.01392610941704 134.651 162.441 C 137.4311483030398 163.91895573058943 140.39200772805458 166.42977761643678 142.138 168.839 C 143.6626402742328 170.94278793456564 144.2928077098093 172.29565971184354 144.997 175.783 C 146.8428464232431 184.9241034843644 145.406 227.378 145.406 227.378" data-bx-d="M 106.062 225.608 R 106.471 175.51 R 110.555 166.934 R 118.995 160.944 R 125.802 159.991 R 134.651 162.441 R 142.138 168.839 R 144.997 175.783 R 145.406 227.378 1@fbd5d35a"></path>
	<line style="fill: none; stroke: #99ff66; stroke-width: 7px;" x1="125.419" y1="222.475" x2="125.55" y2="177.108"></line>
	<line style="fill: none; stroke: #99ff66; stroke-width: 7px;" x1="204.245" y1="222.145" x2="204.376" y2="176.778"></line>
	<path style="fill: none; stroke: #99ff66; stroke-width: 7px;" d="M 125.285 139.746 C 125.285 139.746 125.786 133.808 126.512 130.826 C 127.28 127.672 128.303 124.301 129.881 121.334 C 131.496 118.295 133.624 115.323 136.158 112.836 C 138.8 110.243 142.279 107.954 145.524 106.185 C 148.592 104.513 151.681 103.223 155.058 102.37 C 158.619 101.471 162.673 100.972 166.406 101.071 C 170.069 101.168 173.728 101.684 177.252 102.899 C 181 104.191 185.192 106.721 188.186 108.831 C 190.583 110.52 192.355 112.186 194.126 114.154 C 195.902 116.127 197.479 118.402 198.822 120.658 C 200.127 122.85 201.334 125.159 202.108 127.482 C 202.848 129.705 203.188 132.034 203.446 134.283 C 203.696 136.456 203.669 140.75 203.669 140.75" data-bx-d="M 125.285 139.746 R 126.512 130.826 R 129.881 121.334 R 136.158 112.836 R 145.524 106.185 R 155.058 102.37 R 166.406 101.071 R 177.252 102.899 R 188.186 108.831 R 194.126 114.154 R 198.822 120.658 R 202.108 127.482 R 203.446 134.283 R 203.669 140.75 1@2852819e"></path>
	<path style="fill: none; stroke: #99ff66; stroke-width: 7px;" d="M 224.074 144.665 C 224.074 144.665 223.974 136.156 223.182 131.619 C 222.285 126.479 220.727 120.36 218.587 115.475 C 216.603 110.946 214.021 106.816 211.067 103.167 C 208.199 99.624 205.143 96.686 201.197 93.821 C 196.515 90.421 189.808 86.67 184.38 84.678 C 179.793 82.995 175.386 82.382 171 81.89 C 166.845 81.424 162.686 81.307 158.735 81.667 C 154.969 82.01 151.565 82.708 147.812 83.882 C 143.544 85.217 138.625 87.27 134.572 89.577 C 130.702 91.78 127.13 94.39 123.947 97.304 C 120.817 100.169 117.881 103.348 115.599 106.88 C 113.303 110.434 111.467 114.855 110.233 118.574 C 109.184 121.736 108.767 124.546 108.287 127.671 C 107.786 130.931 107.437 134.564 107.334 137.752 C 107.242 140.618 107.579 145.932 107.579 145.932" data-bx-d="M 224.074 144.665 R 223.182 131.619 R 218.587 115.475 R 211.067 103.167 R 201.197 93.821 R 184.38 84.678 R 171 81.89 R 158.735 81.667 R 147.812 83.882 R 134.572 89.577 R 123.947 97.304 R 115.599 106.88 R 110.233 118.574 R 108.287 127.671 R 107.334 137.752 R 107.579 145.932 1@68928807"></path>
	<path style="fill: none; stroke: #99ff66; stroke-width: 7px;" d="M 145.542 146.168 C 145.542 146.168 145.321 139.688 145.597 137.256 C 145.792 135.536 146.086 134.302 146.57 132.904 C 147.056 131.501 147.633 130.131 148.511 128.853 C 149.478 127.445 150.927 125.944 152.255 124.892 C 153.437 123.955 154.821 123.288 155.992 122.719 C 156.961 122.248 157.738 121.95 158.746 121.624 C 159.917 121.245 161.32 120.833 162.622 120.645 C 163.904 120.46 165.191 120.44 166.495 120.49 C 167.832 120.541 169.298 120.672 170.546 120.966 C 171.673 121.231 172.632 121.601 173.677 122.093 C 174.822 122.632 176.052 123.339 177.117 124.128 C 178.183 124.917 179.16 125.849 180.07 126.828 C 180.99 127.817 181.914 128.92 182.602 130.035 C 183.249 131.083 183.731 132.151 184.13 133.301 C 184.544 134.495 184.8 135.58 185.015 137.082 C 185.322 139.228 185.445 144.999 185.445 144.999" data-bx-d="M 145.542 146.168 R 145.597 137.256 R 146.57 132.904 R 148.511 128.853 R 152.255 124.892 R 155.992 122.719 R 158.746 121.624 R 162.622 120.645 R 166.495 120.49 R 170.546 120.966 R 173.677 122.093 R 177.117 124.128 R 180.07 126.828 R 182.602 130.035 R 184.13 133.301 R 185.015 137.082 R 185.445 144.999 1@2834952b"></path>
</svg>